<?xml version="1.0" encoding="UTF-8" standalone="no"?>
<!-- Created with Inkscape (http://www.inkscape.org/) -->

<svg
   width="79.761772mm"
   height="80.661545mm"
   viewBox="0 0 79.761772 80.661545"
   version="1.1"
   id="svg1"
   xml:space="preserve"
   inkscape:version="1.3 (0e150ed, 2023-07-21)"
   sodipodi:docname="logo-prop-01.svg"
   xmlns:inkscape="http://www.inkscape.org/namespaces/inkscape"
   xmlns:sodipodi="http://sodipodi.sourceforge.net/DTD/sodipodi-0.dtd"
   xmlns:xlink="http://www.w3.org/1999/xlink"
   xmlns="http://www.w3.org/2000/svg"
   xmlns:svg="http://www.w3.org/2000/svg"><sodipodi:namedview
     id="namedview1"
     pagecolor="#ffffff"
     bordercolor="#000000"
     borderopacity="0.25"
     inkscape:showpageshadow="2"
     inkscape:pageopacity="0.0"
     inkscape:pagecheckerboard="0"
     inkscape:deskcolor="#d1d1d1"
     inkscape:document-units="mm"
     inkscape:zoom="0.85292612"
     inkscape:cx="408.59342"
     inkscape:cy="430.28346"
     inkscape:window-width="1632"
     inkscape:window-height="1027"
     inkscape:window-x="2085"
     inkscape:window-y="1136"
     inkscape:window-maximized="0"
     inkscape:current-layer="layer1"
     showgrid="false"><inkscape:grid
       id="grid7"
       units="mm"
       originx="-474.03859"
       originy="-467.61202"
       spacingx="0.99999998"
       spacingy="1"
       empcolor="#0099e5"
       empopacity="0.30196078"
       color="#0099e5"
       opacity="0.14901961"
       empspacing="5"
       dotted="false"
       gridanglex="30"
       gridanglez="30"
       visible="false" /></sodipodi:namedview><defs
     id="defs1"><linearGradient
       id="linearGradient13"
       inkscape:collect="always"><stop
         style="stop-color:#c948dc;stop-opacity:1;"
         offset="0"
         id="stop13" /><stop
         style="stop-color:#6759a9;stop-opacity:1;"
         offset="0.33024693"
         id="stop14" /></linearGradient><linearGradient
       id="linearGradient10"
       inkscape:collect="always"><stop
         style="stop-color:#3e418c;stop-opacity:1;"
         offset="0"
         id="stop10" /><stop
         style="stop-color:#584ea5;stop-opacity:1;"
         offset="1"
         id="stop11" /></linearGradient><linearGradient
       id="linearGradient8"
       inkscape:collect="always"><stop
         style="stop-color:#0d2658;stop-opacity:0.99607843;"
         offset="0"
         id="stop8" /><stop
         style="stop-color:#5c50a9;stop-opacity:1;"
         offset="1"
         id="stop9" /></linearGradient><linearGradient
       inkscape:collect="always"
       xlink:href="#linearGradient4"
       id="linearGradient5"
       x1="61.157703"
       y1="37.050446"
       x2="66.907242"
       y2="33.040859"
       gradientUnits="userSpaceOnUse"
       gradientTransform="translate(84.400357,124.03632)" /><linearGradient
       id="linearGradient4"
       inkscape:collect="always"><stop
         style="stop-color:#554da2;stop-opacity:1;"
         offset="0"
         id="stop4" /><stop
         style="stop-color:#6b60ad;stop-opacity:1;"
         offset="1"
         id="stop5" /></linearGradient><linearGradient
       id="linearGradient2"
       inkscape:collect="always"><stop
         style="stop-color:#0c265b;stop-opacity:1;"
         offset="0"
         id="stop2" /><stop
         style="stop-color:#715cbe;stop-opacity:1;"
         offset="1"
         id="stop3" /></linearGradient><linearGradient
       inkscape:collect="always"
       xlink:href="#linearGradient8"
       id="linearGradient9"
       x1="90.882256"
       y1="130.61087"
       x2="44.324532"
       y2="75.358482"
       gradientUnits="userSpaceOnUse"
       gradientTransform="matrix(1.0022778,0,0,1.0022778,-24.327046,-0.08569033)" /><linearGradient
       inkscape:collect="always"
       xlink:href="#linearGradient10"
       id="linearGradient11"
       x1="-11.017208"
       y1="43.39109"
       x2="67.649788"
       y2="28.839006"
       gradientUnits="userSpaceOnUse" /><linearGradient
       inkscape:collect="always"
       xlink:href="#linearGradient13"
       id="linearGradient14"
       x1="55.172619"
       y1="66.770454"
       x2="66.243217"
       y2="73.517334"
       gradientUnits="userSpaceOnUse"
       gradientTransform="translate(88.59018,90.270126)" /><linearGradient
       inkscape:collect="always"
       xlink:href="#linearGradient2"
       id="linearGradient134"
       gradientUnits="userSpaceOnUse"
       gradientTransform="translate(84.007366,123.50462)"
       x1="11.591749"
       y1="78.912079"
       x2="11.507823"
       y2="6.7893968" /></defs><g
     inkscape:label="Calque 1"
     inkscape:groupmode="layer"
     id="layer1"
     transform="translate(-94.275463,-130.48665)"><circle
       style="fill:none;fill-opacity:0.541667;stroke:url(#linearGradient9);stroke-width:0.5;stroke-dasharray:none"
       id="path5"
       inkscape:label="ext"
       r="43.599091"
       cy="81.618378"
       cx="20.55875"
       inkscape:export-filename="../../../../Documents/GitProjects/WebSite-CB-LA/images/test.png"
       inkscape:export-xdpi="140.24612"
       inkscape:export-ydpi="140.24612" /><path
       style="opacity:1;fill:url(#linearGradient5);stroke:url(#linearGradient14);stroke-width:0.1;stroke-dasharray:none"
       d="m 143.99775,157.30767 c 0.34727,-0.46302 2.82774,-0.0165 4.36563,0.4961 1.53789,0.51263 3.32891,2.94167 2.96002,3.5388 -0.4844,0.47697 -2.50947,0.45698 -4.10104,0.0331 -1.10061,-0.29315 -4.08438,-2.8859 -3.22461,-4.06797 z"
       id="path2"
       inkscape:label="oeil"
       sodipodi:nodetypes="cscsc" /><text
       xml:space="preserve"
       style="font-style:normal;font-variant:normal;font-weight:normal;font-stretch:normal;font-size:8.81944px;font-family:Veni;-inkscape-font-specification:'Veni, Normal';font-variant-ligatures:normal;font-variant-caps:normal;font-variant-numeric:normal;font-variant-east-asian:normal;fill:url(#linearGradient11);stroke:none;stroke-width:0.1;stroke-dasharray:none"
       id="text8"
       transform="rotate(-157.11138,125.41588,179.68376)"
       inkscape:label="Lumiere Animale"><textPath
         xlink:href="#path5"
         id="textPath11"
         style="fill:url(#linearGradient11)"><tspan
           id="tspan8"
           style="font-style:normal;font-variant:normal;font-weight:normal;font-stretch:normal;font-size:8.81944px;font-family:Veni;-inkscape-font-specification:'Veni, Normal';font-variant-ligatures:normal;font-variant-caps:normal;font-variant-numeric:normal;font-variant-east-asian:normal;fill:url(#linearGradient11);fill-opacity:1;stroke-width:0.1">Lumière Animale </tspan><tspan
           style="font-style:normal;font-variant:normal;font-weight:normal;font-stretch:normal;font-size:8.81944px;font-family:Veni;-inkscape-font-specification:'Veni, Normal';font-variant-ligatures:normal;font-variant-caps:normal;font-variant-numeric:normal;font-variant-east-asian:normal;fill:url(#linearGradient11);fill-opacity:1;stroke-width:0.1"
           id="tspan9" /></textPath></text><path
       id="path134"
       style="opacity:1;fill:url(#linearGradient134);stroke-width:0.264583"
       inkscape:label="contour"
       d="m 131.24825,130.48665 c -0.57437,5.59844 -2.61631,6.07936 -6.48695,9.90379 -1.97676,2.16192 -3.78782,4.71705 -4.57646,7.52667 -13.37397,-0.50533 -21.62995,11.52792 -21.06331,11.44892 0.15926,-0.0222 2.02702,-1.35178 2.06654,-1.37718 1.97688,-1.27076 3.87811,-1.38226 3.52795,-1.18184 -6.611762,3.78437 -11.774497,12.24978 -10.133609,19.97631 0.288443,1.3582 0.483614,-3.15224 3.967579,-6.00765 -0.749926,3.30455 -3.20767,8.31625 -0.563278,16.6889 3.018788,9.55805 11.746568,15.67191 11.746568,15.67191 -0.44318,-9.83167 1.38879,-14.1322 9.34775,-20.5574 -4.93392,1.78885 -8.79447,4.11702 -11.86646,9.04493 2.42679,-11.77715 15.0615,-15.55683 20.88503,-16.22382 -2.94402,-0.184 -7.34126,-3.80132 -4.80849,-9.3431 -2.55183,-1.24724 -5.0968,1.22434 -5.1909,0.76946 -0.3853,-1.86258 5.60998,-11.61417 17.77721,-6.60218 0.22017,-8.60035 8.30009,-13.53949 15.77527,-3.88503 1.18262,1.52741 1.15554,1.50659 2.03191,2.92023 2.99419,4.82983 11.1551,4.91798 13.87151,9.05165 1.13893,1.73316 0.69544,1.91892 1.19062,2.85977 0.49519,0.94086 1.76372,1.29501 1.76372,1.29501 -5.60962,8.2506 -13.56791,4.00041 -22.22707,3.52434 -13.35192,-0.73408 -22.74728,7.40394 -21.28914,6.94014 13.6792,-4.351 -4.62768,15.0895 -5.48752,21.15168 -1.21936,8.59699 14.23559,7.19244 17.80408,6.60683 -13.93807,-14.56029 -17.38125,-29.37146 23.7293,-30.53095 5.35521,-0.15104 8.1928,-4.83622 10.02575,-7.23315 3.97594,-5.84286 -5.27266,-7.56657 -9.38237,-8.8346 -4.3643,-1.40951 -7.18852,-5.50301 -9.73998,-9.22735 -3.25084,-4.74521 -11.5114,-7.19257 -14.22755,-8.03465 1.38427,-3.40529 1.22947,-8.35595 -1.28726,-13.12271 -0.9532,4.83192 -2.40759,8.41123 -6.23942,11.98376 2.27857,-3.79468 2.29054,-10.11711 -0.94102,-15.20269 z m 0.29662,5.01934 c 1.25143,3.49486 1.69078,11.60269 -3.73259,12.17651 -1.56595,0.16569 -2.65509,0.91244 -3.67471,1.92753 0.36007,-1.26343 2.48294,-3.46347 3.21272,-3.59616 -2.03264,0.29658 -4.30463,2.23223 -4.76043,3.39876 -1.28022,-7.1471 7.37516,-9.4225 8.95501,-13.90664 z m 6.87141,1.76475 c 1.20181,3.6728 1.7367,8.12573 -0.15606,9.30382 -0.73741,0.45898 -1.63351,-0.54627 -3.30057,-0.78341 -0.81242,-0.11557 0.32302,-0.42855 0.68368,-0.5147 2.73706,-0.6538 2.67274,-4.83924 2.77295,-8.00571 z"
       sodipodi:nodetypes="cccscsscscccccscsssscssscsccscccccscccccsssc"
       inkscape:export-filename="../../../../Documents/GitProjects/WebSite-CB-LA/images/small-logo.svg"
       inkscape:export-xdpi="159.22414"
       inkscape:export-ydpi="159.22414" /></g></svg>
